# xmcd CD database file
#
# Track frame offsets:
#	150
#	13393
#	27647
#	39979
#	54521
#	67901
#	95549
#	111928
#	127721
#	146038
#	162337
#	178328
#	192139
#	205532
#	231586
#
# Disc length: 3278 seconds
#
# Revision: 0
# Processed by: cddbd v1.5.2PL0 Copyright (c) Steve Scherf et al.
# Submitted via: CDex 1.70beta2
#
DISCID=d40ccc0f
DTITLE=JJ CALE - In London
DYEAR=1994
DGENRE=Blues
TTITLE0=River Boat Song
TTITLE1=Ride Me High
TTITLE2=The Old Man And Me
TTITLE3=New Orleans
TTITLE4=Don't Cry Sister
TTITLE5=They Call Me The Breeze
TTITLE6=Lies
TTITLE7=Black Cat
TTITLE8=Feel So Bad
TTITLE9=Instrumental 
TTITLE10=Cloer To You
TTITLE11=Nowhere To Run
TTITLE12=Everlovin'  Woman
TTITLE13=After Midnight
TTITLE14=No Time
EXTD=YEAR: 1994
EXTT0=
EXTT1=
EXTT2=
EXTT3=
EXTT4=
EXTT5=
EXTT6=
EXTT7=
EXTT8=
EXTT9=
EXTT10=
EXTT11=
EXTT12=
EXTT13=
EXTT14=
PLAYORDER=
